<svg xmlns="http://www.w3.org/2000/svg" xmlns:xlink="http://www.w3.org/1999/xlink" width="418.5" height="83" viewBox="0 0 418.5 83">
  <defs>
    <linearGradient id="linear-gradient" x1="0.5" x2="0.977" y2="0.583" gradientUnits="objectBoundingBox">
      <stop offset="0" stop-color="#ead3f0"/>
      <stop offset="1" stop-color="#c662ef"/>
    </linearGradient>
    <filter id="Rectangle_1036" x="9" y="6" width="409.5" height="74.5" filterUnits="userSpaceOnUse">
      <feOffset dx="5" dy="5" input="SourceAlpha"/>
      <feGaussianBlur stdDeviation="1.5" result="blur"/>
      <feFlood flood-opacity="0.141"/>
      <feComposite operator="in" in2="blur"/>
      <feComposite in="SourceGraphic"/>
    </filter>
    <linearGradient id="linear-gradient-2" x2="0.5" y2="1" xlink:href="#linear-gradient"/>
    <filter id="Rectangle_1035" x="0" y="0" width="96" height="83" filterUnits="userSpaceOnUse">
      <feOffset dy="3" input="SourceAlpha"/>
      <feGaussianBlur stdDeviation="3" result="blur-2"/>
      <feFlood flood-opacity="0.161"/>
      <feComposite operator="in" in2="blur-2"/>
      <feComposite in="SourceGraphic"/>
    </filter>
  </defs>
  <g id="bg_mnbnn" transform="translate(9 6)">
    <g transform="matrix(1, 0, 0, 1, -9, -6)" filter="url(#Rectangle_1036)">
      <path id="Rectangle_1036-2" data-name="Rectangle 1036" d="M0,0H385a15,15,0,0,1,15,15V65a0,0,0,0,1,0,0H15A15,15,0,0,1,0,50V0A0,0,0,0,1,0,0Z" transform="translate(9 6)" fill="url(#linear-gradient)"/>
    </g>
    <g transform="matrix(1, 0, 0, 1, -9, -6)" filter="url(#Rectangle_1035)">
      <path id="Rectangle_1035-2" data-name="Rectangle 1035" d="M0,0H63A15,15,0,0,1,78,15V65a0,0,0,0,1,0,0H15A15,15,0,0,1,0,50V0A0,0,0,0,1,0,0Z" transform="translate(9 6)" fill="url(#linear-gradient-2)"/>
    </g>
  </g>
</svg>
