<svg xmlns="http://www.w3.org/2000/svg" xmlns:xlink="http://www.w3.org/1999/xlink" width="330" height="103.136" viewBox="0 0 330 103.136">
  <defs>
    <filter id="Rectangle_1134" x="0" y="5.136" width="330" height="98" filterUnits="userSpaceOnUse">
      <feOffset dy="3" input="SourceAlpha"/>
      <feGaussianBlur stdDeviation="7.5" result="blur"/>
      <feFlood flood-color="#fff"/>
      <feComposite operator="in" in2="blur"/>
      <feComposite in="SourceGraphic"/>
    </filter>
    <clipPath id="clip-path">
      <rect id="Rectangle_1133" data-name="Rectangle 1133" width="36.245" height="77.328" fill="none"/>
    </clipPath>
    <linearGradient id="linear-gradient" x1="0.5" x2="0.5" y2="1" gradientUnits="objectBoundingBox">
      <stop offset="0" stop-color="#90f28a"/>
      <stop offset="1" stop-color="#21be89"/>
    </linearGradient>
  </defs>
  <g id="bg_menuleft" transform="translate(8.5)">
    <g transform="matrix(1, 0, 0, 1, -8.5, 0)" filter="url(#Rectangle_1134)">
      <rect id="Rectangle_1134-2" data-name="Rectangle 1134" width="285" height="53" rx="19" transform="translate(22.5 24.64)" fill="#fff"/>
    </g>
    <g id="Group_1956" data-name="Group 1956">
      <g id="Group_1955" data-name="Group 1955" clip-path="url(#clip-path)">
        <path id="Path_1641" data-name="Path 1641" d="M36.246,351.109v-1.738c-4.53-.307-5.538-4.606-6.042-10.44s-10.067-7.677-10.067-7.677H16.111S6.546,333.1,6.043,338.931,4.534,349.064,0,349.371v1.738Z" transform="translate(-0.001 -273.781)" fill="#f7c443"/>
        <path id="Path_1642" data-name="Path 1642" d="M20.136,331.254H16.11S6.545,333.1,6.042,338.931,4.533,349.064,0,349.371v1.738H9.05l12.334-19.548c-.759-.212-1.247-.307-1.247-.307" transform="translate(0 -273.781)" fill="#fbd57b"/>
        <path id="Path_1643" data-name="Path 1643" d="M72.371,78.41H67.976l-4.822,47.337h14.33Z" transform="translate(-52.197 -64.806)" fill="#e2a21f"/>
        <path id="Path_1644" data-name="Path 1644" d="M95.062,13.231s1.165-.333.915-2.08S94.48.916,94.48.916,94.315.167,93.814,0h-.131c-.5.167-.664.916-.664.916S91.771,9.4,91.52,11.15s.917,2.08.917,2.08Z" transform="translate(-75.613)" fill="#f7c443"/>
        <path id="Path_1645" data-name="Path 1645" d="M72.057,334.715a1.22,1.22,0,0,1-1.215,1.226L56.022,336a1.222,1.222,0,0,1-.009-2.444l14.818-.057a1.215,1.215,0,0,1,1.225,1.216" transform="translate(-45.29 -275.636)" fill="#f7c443"/>
        <path id="Path_1646" data-name="Path 1646" d="M73.426,315.949a1.182,1.182,0,0,1-1.178,1.187l-14.169.057a1.185,1.185,0,0,1-.009-2.369l14.169-.055a1.178,1.178,0,0,1,1.187,1.179" transform="translate(-47.023 -260.157)" fill="#f7c443"/>
        <path id="Path_1647" data-name="Path 1647" d="M74.792,299.676a1.143,1.143,0,0,1-1.139,1.149l-13.52.056a1.146,1.146,0,0,1-.009-2.293l13.522-.053a1.14,1.14,0,0,1,1.147,1.141" transform="translate(-48.751 -246.738)" fill="#f7c443"/>
        <path id="Path_1648" data-name="Path 1648" d="M76.154,283.4a1.106,1.106,0,0,1-1.1,1.111l-12.871.054a1.108,1.108,0,0,1-.008-2.216l12.871-.052a1.1,1.1,0,0,1,1.11,1.1" transform="translate(-50.476 -233.316)" fill="#f7c443"/>
        <path id="Path_1649" data-name="Path 1649" d="M77.52,267.126a1.067,1.067,0,0,1-1.064,1.074l-12.221.052a1.07,1.07,0,0,1-.007-2.14l12.22-.05a1.065,1.065,0,0,1,1.071,1.065" transform="translate(-52.206 -219.9)" fill="#f7c443"/>
        <path id="Path_1650" data-name="Path 1650" d="M78.882,250.851a1.029,1.029,0,0,1-1.026,1.034l-11.572.05a1.032,1.032,0,0,1-.008-2.063l11.572-.048a1.026,1.026,0,0,1,1.033,1.027" transform="translate(-53.93 -206.479)" fill="#f7c443"/>
        <path id="Path_1651" data-name="Path 1651" d="M80.244,233.642a.991.991,0,0,1-.987,1l-10.924.047a.993.993,0,0,1-.007-1.986l10.922-.046a.989.989,0,0,1,1,.989" transform="translate(-55.655 -192.288)" fill="#f7c443"/>
        <path id="Path_1652" data-name="Path 1652" d="M81.615,216.747a.953.953,0,0,1-.951.958l-10.273.046a.955.955,0,0,1-.007-1.91l10.273-.045a.952.952,0,0,1,.957.951" transform="translate(-57.387 -178.355)" fill="#f7c443"/>
        <path id="Path_1653" data-name="Path 1653" d="M82.978,198.293a.916.916,0,0,1-.913.92l-9.623.042a.917.917,0,0,1-.007-1.834l9.624-.041a.914.914,0,0,1,.919.913" transform="translate(-59.113 -163.134)" fill="#f7c443"/>
        <path id="Path_1654" data-name="Path 1654" d="M84.347,182.332a.878.878,0,0,1-.875.882l-8.975.041a.879.879,0,0,1-.006-1.757l8.974-.04a.875.875,0,0,1,.881.874" transform="translate(-60.844 -149.974)" fill="#f7c443"/>
        <path id="Path_1655" data-name="Path 1655" d="M85.709,165.432a.839.839,0,0,1-.836.844l-8.326.039a.841.841,0,0,1-.006-1.682l8.325-.038a.839.839,0,0,1,.843.837" transform="translate(-62.57 -136.037)" fill="#f7c443"/>
        <path id="Path_1656" data-name="Path 1656" d="M87.075,147.6a.8.8,0,0,1-.8.8l-7.676.037a.8.8,0,0,1-.005-1.6l7.676-.036a.8.8,0,0,1,.8.8" transform="translate(-64.299 -121.334)" fill="#f7c443"/>
        <path id="Path_1657" data-name="Path 1657" d="M88.44,130.705a.762.762,0,0,1-.76.766l-7.028.037a.764.764,0,0,1,0-1.529l7.026-.035a.762.762,0,0,1,.767.761" transform="translate(-66.026 -107.398)" fill="#f7c443"/>
        <path id="Path_1658" data-name="Path 1658" d="M89.807,115.714a.724.724,0,0,1-.722.728l-6.377.032a.726.726,0,1,1-.005-1.452l6.376-.032a.724.724,0,0,1,.728.723" transform="translate(-67.755 -95.04)" fill="#f7c443"/>
        <path id="Path_1659" data-name="Path 1659" d="M91.162,101.308a.688.688,0,0,1-.685.691l-5.727.03a.687.687,0,1,1-.005-1.374l5.728-.031a.686.686,0,0,1,.688.685" transform="translate(-69.475 -83.165)" fill="#f7c443"/>
        <path id="Path_1660" data-name="Path 1660" d="M92.534,87.639a.65.65,0,0,1-.647.652l-5.079.029a.649.649,0,1,1,0-1.3l5.078-.029a.65.65,0,0,1,.652.647" transform="translate(-71.209 -71.899)" fill="#f7c443"/>
        <path id="Path_1661" data-name="Path 1661" d="M93.9,75.573a.612.612,0,0,1-.607.614l-4.43.027a.612.612,0,1,1,0-1.223l4.428-.026a.611.611,0,0,1,.614.609" transform="translate(-72.938 -61.958)" fill="#f7c443"/>
        <path id="Path_1662" data-name="Path 1662" d="M58.442,345.53a1.734,1.734,0,0,1-1.735,1.734H35.68a1.734,1.734,0,1,1,0-3.468H56.707a1.735,1.735,0,0,1,1.735,1.734" transform="translate(-28.056 -284.146)" fill="#f7c443"/>
      </g>
    </g>
    <path id="Path_1664" data-name="Path 1664" d="M26.914,2272.927s6.662-7.78,16.878-7.3c8.563,2,10.892-2.947,15.874-3.129,7.145-.26,5.58,2.031,14.335-.762s10.5-13.2,23.963-4.535,21.64-.753,26.45,5.3a7.075,7.075,0,0,1-.91,10.427Z" transform="translate(176.884 -2195.291)" fill="#90f28a"/>
    <path id="Path_1663" data-name="Path 1663" d="M26.914,2270s5.85-6.588,14.821-6.18c7.519,1.69,9.564-2.5,13.94-2.649,6.275-.22,4.9,1.72,12.588-.646s9.217-11.18,21.042-3.84,19-.637,23.227,4.486-.8,8.83-.8,8.83Z" transform="translate(189 -2192.364)" fill="url(#linear-gradient)"/>
    <rect id="Rectangle_1135" data-name="Rectangle 1135" width="299" height="3" transform="translate(0 77.636)" fill="#b2f34f"/>
  </g>
</svg>
