<svg xmlns="http://www.w3.org/2000/svg" width="25.332" height="17.1" viewBox="0 0 25.332 17.1">
  <path id="ico_website01" d="M.072,19.653V5.583q0-.024.073-.464L8.426,12.2.17,20.142a2.07,2.07,0,0,1-.1-.489Zm1.1-15.512a1.053,1.053,0,0,1,.415-.073h22.3a1.383,1.383,0,0,1,.44.073L16.024,11.25l-1.1.879L12.75,13.913l-2.174-1.783-1.1-.879ZM1.2,21.094l8.33-7.988L12.75,15.72l3.225-2.614,8.33,7.988a1.173,1.173,0,0,1-.415.073H1.587a1.106,1.106,0,0,1-.391-.073ZM17.074,12.2l8.257-7.084a1.458,1.458,0,0,1,.073.464V19.653a1.872,1.872,0,0,1-.073.489Z" transform="translate(-0.072 -4.068)"/>
</svg>
