<svg xmlns="http://www.w3.org/2000/svg" width="24.275" height="18.877" viewBox="0 0 24.275 18.877">
  <path id="ico_website02" d="M11.815,7.151l-7.77,6.4v6.907a.674.674,0,0,0,.674.674l4.722-.012a.674.674,0,0,0,.671-.674V16.411a.674.674,0,0,1,.674-.674h2.7a.674.674,0,0,1,.674.674v4.03a.674.674,0,0,0,.674.676l4.721.013a.674.674,0,0,0,.674-.674V13.545L12.459,7.151A.514.514,0,0,0,11.815,7.151ZM24.088,11.5,20.564,8.6V2.759a.506.506,0,0,0-.506-.506H17.7a.506.506,0,0,0-.506.506v3.06l-3.773-3.1a2.023,2.023,0,0,0-2.571,0L.182,11.5a.506.506,0,0,0-.067.712L1.19,13.519a.506.506,0,0,0,.713.069l9.912-8.164a.514.514,0,0,1,.645,0l9.913,8.164a.506.506,0,0,0,.712-.067l1.075-1.306a.506.506,0,0,0-.072-.713Z" transform="translate(0.001 -2.254)"/>
</svg>
