<svg xmlns="http://www.w3.org/2000/svg" xmlns:xlink="http://www.w3.org/1999/xlink" width="124.5" height="57" viewBox="0 0 124.5 57">
  <defs>
    <filter id="Rectangle_1038" x="0" y="0" width="124.5" height="57" filterUnits="userSpaceOnUse">
      <feOffset dy="3" input="SourceAlpha"/>
      <feGaussianBlur stdDeviation="3" result="blur"/>
      <feFlood flood-opacity="0.161"/>
      <feComposite operator="in" in2="blur"/>
      <feComposite in="SourceGraphic"/>
    </filter>
  </defs>
  <g id="see_more" data-name="see more" transform="translate(9 6)">
    <g transform="matrix(1, 0, 0, 1, -9, -6)" filter="url(#Rectangle_1038)">
      <rect id="Rectangle_1038-2" data-name="Rectangle 1038" width="106.5" height="39" rx="8" transform="translate(9 6)" fill="#f1f90a"/>
    </g>
    <text id="ดูทั้งหมด" transform="translate(10 26)" fill="#0f0f0f" font-size="18" font-family="Mitr-Regular, Mitr"><tspan x="0" y="0">ดูทั้งหมด</tspan></text>
    <g id="arrow-right-circle-fill" transform="translate(84 15)">
      <path id="Path_647" data-name="Path 647" d="M12.5,6.25A6.25,6.25,0,1,1,6.25,0,6.25,6.25,0,0,1,12.5,6.25ZM5.974,8.317a.391.391,0,1,0,.553.553L8.87,6.527a.391.391,0,0,0,0-.553L6.527,3.63a.391.391,0,1,0-.553.553L7.651,5.859H3.906a.391.391,0,1,0,0,.781H7.651L5.973,8.317Z"/>
    </g>
  </g>
</svg>
