<svg xmlns="http://www.w3.org/2000/svg" xmlns:xlink="http://www.w3.org/1999/xlink" width="98" height="98" viewBox="0 0 98 98">
  <defs>
    <filter id="Rectangle_89" x="0" y="0" width="98" height="98" filterUnits="userSpaceOnUse">
      <feOffset dy="5" input="SourceAlpha"/>
      <feGaussianBlur stdDeviation="5" result="blur"/>
      <feFlood flood-opacity="0.329"/>
      <feComposite operator="in" in2="blur"/>
      <feComposite in="SourceGraphic"/>
    </filter>
  </defs>
  <g id="share_icon" transform="translate(15 10)">
    <g transform="matrix(1, 0, 0, 1, -15, -10)" filter="url(#Rectangle_89)">
      <rect id="Rectangle_89-2" data-name="Rectangle 89" width="68" height="68" rx="7" transform="translate(15 10)" fill="#45bfee"/>
    </g>
    <path id="Icon_awesome-share-alt" data-name="Icon awesome-share-alt" d="M24.75,22.5a6.721,6.721,0,0,0-4.2,1.469l-7.206-4.5a6.789,6.789,0,0,0,0-2.931l7.206-4.5A6.738,6.738,0,1,0,18.16,8.215l-7.206,4.5a6.75,6.75,0,1,0,0,10.562l7.206,4.5A6.751,6.751,0,1,0,24.75,22.5Z" transform="translate(12 16)" fill="#fff"/>
  </g>
</svg>
